<svg xmlns:xlink="http://www.w3.org/1999/xlink" fill="none" width="24" xmlns="http://www.w3.org/2000/svg" style="-webkit-print-color-adjust:exact" id="screenshot-b1b8ee53-daf1-803b-8002-2c0e622a7b5b" version="1.1" viewBox="1452 250 24 24" height="24">
  <g id="shape-b1b8ee53-daf1-803b-8002-2c0e622a7b5b" style="fill:#000000" class="icon" rx="0" ry="0">
    <g id="shape-b1b8ee53-daf1-803b-8002-2c0e622e28d2">
      <g class="fills" id="fills-b1b8ee53-daf1-803b-8002-2c0e622e28d2">
        <path rx="0" ry="0" style="fill:#3c3c3c;fill-opacity:1" d="M1464.000,251.000C1457.924,251.000,1453.000,255.924,1453.000,262.000L1453.000,272.313C1453.000,272.693,1453.307,273.000,1453.688,273.000L1458.958,273.000C1459.970,273.000,1460.792,272.178,1460.792,271.167L1460.792,265.208C1460.792,264.197,1459.970,263.375,1458.958,263.375L1455.063,263.375L1455.063,262.000C1455.063,257.064,1459.064,253.063,1464.000,253.063C1468.936,253.063,1472.938,257.064,1472.938,262.000L1472.938,263.375L1469.042,263.375C1468.030,263.375,1467.208,264.197,1467.208,265.208L1467.208,271.167C1467.208,272.178,1468.030,273.000,1469.042,273.000L1474.313,273.000C1474.693,273.000,1475.000,272.693,1475.000,272.313L1475.000,262.000C1475.000,255.924,1470.076,251.000,1464.000,251.000ZZM1458.729,265.438L1458.729,270.938L1455.063,270.938L1455.063,265.438L1458.729,265.438ZZM1472.938,270.938L1469.271,270.938L1469.271,265.438L1472.938,265.438L1472.938,270.938ZZ">
        </path>
      </g>
    </g>
  </g>
</svg>