<svg xmlns:xlink="http://www.w3.org/1999/xlink" fill="none" width="24" xmlns="http://www.w3.org/2000/svg" style="-webkit-print-color-adjust:exact" id="screenshot-b1b8ee53-daf1-803b-8002-2c0a993243eb" version="1.1" viewBox="1422 250 24 24" height="24">
  <g id="shape-b1b8ee53-daf1-803b-8002-2c0a993243eb" style="fill:#000000" width="200" xmlns:xlink="http://www.w3.org/1999/xlink" class="icon" version="1.1" height="200" rx="0" ry="0">
    <g id="shape-b1b8ee53-daf1-803b-8002-2c0a99336da4">
      <defs rx="0" ry="0" style="fill:#3c3c3c;fill-opacity:1">
      </defs>
    </g>
    <g id="shape-b1b8ee53-daf1-803b-8002-2c0a9934fa1d">
      <g class="fills" id="fills-b1b8ee53-daf1-803b-8002-2c0a9934fa1d">
        <path rx="0" ry="0" style="fill:#3c3c3c;fill-opacity:1" d="M1437.984,260.664L1437.984,257.289L1436.203,259.070L1436.203,260.664C1436.201,261.852,1435.219,262.823,1434.000,262.820C1433.552,262.823,1433.137,262.694,1432.781,262.469L1431.516,263.758C1432.198,264.283,1433.060,264.602,1434.000,264.602C1436.198,264.602,1437.984,262.841,1437.984,260.664ZZ">
        </path>
      </g>
    </g>
    <g id="shape-b1b8ee53-daf1-803b-8002-2c0a99386554">
      <g class="fills" id="fills-b1b8ee53-daf1-803b-8002-2c0a99386554">
        <path rx="0" ry="0" style="fill:#3c3c3c;fill-opacity:1" d="M1441.523,260.453L1440.117,260.453C1440.014,260.453,1439.930,260.538,1439.930,260.641C1439.930,263.929,1437.265,266.594,1433.977,266.594C1432.500,266.594,1431.148,266.055,1430.109,265.164L1428.844,266.430C1429.990,267.442,1431.441,268.124,1433.039,268.328L1433.039,270.719L1429.641,270.719C1429.315,270.719,1429.057,271.054,1429.055,271.469L1429.055,272.313C1429.057,272.416,1429.123,272.500,1429.195,272.500L1438.758,272.500C1438.833,272.500,1438.898,272.416,1438.898,272.313L1438.898,271.469C1438.898,271.054,1438.641,270.719,1438.313,270.719L1434.820,270.719L1434.820,268.328C1438.695,267.909,1441.711,264.627,1441.711,260.641C1441.711,260.538,1441.627,260.453,1441.523,260.453ZZM1441.830,251.601L1440.811,250.619C1440.738,250.548,1440.621,250.548,1440.548,250.621L1437.525,253.645C1436.866,252.372,1435.523,251.500,1433.977,251.500C1431.776,251.500,1429.992,253.265,1429.992,255.438L1429.992,260.688C1429.992,260.845,1430.002,260.999,1430.020,261.152L1428.427,262.745C1428.180,262.091,1428.045,261.381,1428.047,260.641C1428.042,260.538,1427.958,260.453,1427.859,260.453L1426.453,260.453C1426.350,260.453,1426.266,260.538,1426.266,260.641C1426.266,261.883,1426.559,263.055,1427.077,264.095L1423.866,267.306C1423.793,267.379,1423.793,267.498,1423.866,267.571L1424.866,268.572C1424.939,268.645,1425.059,268.645,1425.131,268.572L1441.833,251.870L1441.835,251.868C1441.908,251.793,1441.905,251.673,1441.830,251.601ZZM1431.773,259.398L1431.773,255.438C1431.773,254.252,1432.755,253.281,1433.977,253.281C1435.055,253.281,1435.948,254.038,1436.140,255.032L1431.773,259.398ZZ">
        </path>
      </g>
    </g>
  </g>
</svg>