<svg xmlns:xlink="http://www.w3.org/1999/xlink" fill="none" width="24" xmlns="http://www.w3.org/2000/svg" style="-webkit-print-color-adjust:exact" id="screenshot-b1b8ee53-daf1-803b-8002-2c0a3883a381" version="1.1" viewBox="352 250 24 24" height="24">
  <g id="shape-b1b8ee53-daf1-803b-8002-2c0a3883a381" style="fill:#000000" class="icon" rx="0" ry="0">
    <g id="shape-b1b8ee53-daf1-803b-8002-2c0a38876e6b">
      <g class="fills" id="fills-b1b8ee53-daf1-803b-8002-2c0a38876e6b">
        <path rx="0" ry="0" style="fill:#3c3c3c;fill-opacity:1" d="M373.375,254.500L359.688,254.500C359.584,254.500,359.500,254.584,359.500,254.688L359.500,256.000C359.500,256.103,359.584,256.188,359.688,256.188L373.375,256.188C373.478,256.188,373.563,256.103,373.563,256.000L373.563,254.688C373.563,254.584,373.478,254.500,373.375,254.500ZZM373.375,261.156L359.688,261.156C359.584,261.156,359.500,261.241,359.500,261.344L359.500,262.656C359.500,262.759,359.584,262.844,359.688,262.844L373.375,262.844C373.478,262.844,373.563,262.759,373.563,262.656L373.563,261.344C373.563,261.241,373.478,261.156,373.375,261.156ZZM373.375,267.813L359.688,267.813C359.584,267.813,359.500,267.897,359.500,268.000L359.500,269.313C359.500,269.416,359.584,269.500,359.688,269.500L373.375,269.500C373.478,269.500,373.563,269.416,373.563,269.313L373.563,268.000C373.563,267.897,373.478,267.813,373.375,267.813ZZM354.438,255.344C354.438,256.069,355.025,256.656,355.750,256.656C356.475,256.656,357.063,256.069,357.063,255.344C357.063,254.619,356.475,254.031,355.750,254.031C355.025,254.031,354.438,254.619,354.438,255.344ZZM354.438,262.000C354.438,262.725,355.025,263.313,355.750,263.313C356.475,263.313,357.063,262.725,357.063,262.000C357.063,261.275,356.475,260.688,355.750,260.688C355.025,260.688,354.438,261.275,354.438,262.000ZZM354.438,268.656C354.438,269.381,355.025,269.969,355.750,269.969C356.475,269.969,357.063,269.381,357.063,268.656C357.063,267.931,356.475,267.344,355.750,267.344C355.025,267.344,354.438,267.931,354.438,268.656ZZ">
        </path>
      </g>
    </g>
  </g>
</svg>