<svg xmlns:xlink="http://www.w3.org/1999/xlink" fill="none" width="32" xmlns="http://www.w3.org/2000/svg" style="-webkit-print-color-adjust:exact" id="screenshot-b1b8ee53-daf1-803b-8002-2c0677897110" version="1.1" viewBox="2104 1110 32 32" height="32">
  <g id="shape-b1b8ee53-daf1-803b-8002-2c0677897110" style="fill:#000000" width="200" xmlns:xlink="http://www.w3.org/1999/xlink" class="icon" version="1.1" height="200" rx="0" ry="0">
    <g id="shape-b1b8ee53-daf1-803b-8002-2c067789d106">
      <defs rx="0" ry="0" style="fill:#000000">
      </defs>
    </g>
    <g id="shape-b1b8ee53-daf1-803b-8002-2c06778b0110">
      <g class="fills" id="fills-b1b8ee53-daf1-803b-8002-2c06778b0110">
        <path rx="0" ry="0" style="fill:#3c3c3c;fill-opacity:1" d="M2133.106,1125.591L2106.966,1112.484C2106.859,1112.431,2106.737,1112.419,2106.622,1112.447C2106.356,1112.513,2106.191,1112.781,2106.256,1113.050L2108.950,1124.056C2108.991,1124.222,2109.112,1124.356,2109.275,1124.409L2113.891,1125.994L2109.278,1127.578C2109.116,1127.634,2108.994,1127.766,2108.956,1127.931L2106.256,1138.953C2106.228,1139.069,2106.241,1139.191,2106.294,1139.294C2106.416,1139.541,2106.716,1139.641,2106.966,1139.519L2133.106,1126.487C2133.203,1126.441,2133.281,1126.359,2133.331,1126.266C2133.453,1126.016,2133.353,1125.716,2133.106,1125.591ZZM2109.337,1135.822L2110.909,1129.397L2120.134,1126.231C2120.206,1126.206,2120.266,1126.150,2120.291,1126.075C2120.334,1125.944,2120.266,1125.803,2120.134,1125.756L2110.909,1122.594L2109.344,1116.194L2128.969,1126.034L2109.337,1135.822ZZ">
        </path>
      </g>
    </g>
  </g>
</svg>